<svg xmlns="http://www.w3.org/2000/svg" viewBox="0 0 512 512"><defs><style>.cls-1{fill:#7bb9ec;}.cls-2{fill:#d4e85e;}.cls-3{fill:#e6eba5;}.cls-4{fill:#f0c788;}.cls-5{fill:#e9b56f;}.cls-6{fill:#81122f;}.cls-7{fill:#6c122f;}.cls-8{fill:#313d74;}.cls-9{fill:#75c07d;}.cls-10{fill:#db3a46;}.cls-11{fill:#9b112e;}.cls-12{fill:#de5866;}.cls-13{fill:#ad7d55;}.cls-14{fill:#935d32;}.cls-15{fill:#68a76c;}.cls-16{fill:#5f9762;}.cls-17{fill:#76c27d;}.cls-18{fill:#cbf0f3;}.cls-19{fill:#8ed685;}.cls-20{fill:#bbf1f1;}.cls-21{fill:#80bd77;}.cls-22{fill:#9ed697;}.cls-23{fill:#b5e3ad;}</style></defs><title>Food</title><g id="BULINE"><circle class="cls-1" cx="256" cy="256" r="256"/></g><g id="Icons"><path class="cls-2" d="M117.2,234.84A48.25,48.25,0,0,1,49.58,166Z"/><path class="cls-3" d="M109.26,226.76a36.92,36.92,0,0,1-51.74-52.68Z"/><path class="cls-2" d="M298,124.64a48.25,48.25,0,0,1-74.55,61.28Z"/><path class="cls-3" d="M289.21,131.84a36.92,36.92,0,0,1-57,46.88Z"/><path class="cls-4" d="M194.65,270l103.53-42.47,11.48,28L206.14,298a16.32,16.32,0,1,1-30.91,2.15,9,9,0,0,0-4.08-10A16.32,16.32,0,1,1,194.65,270Z"/><path class="cls-5" d="M189.94,306.37a16.35,16.35,0,0,1-15.17-3.44,16.32,16.32,0,1,0,31.36-5l103.52-42.47L304.12,242,200.6,284.46A16.32,16.32,0,0,1,189.94,306.37Z"/><path class="cls-6" d="M258.62,260.07c14.17,34.54,86.15,37.72,132.16,18.85s71.81-62.18,57.64-96.72c-10.38-25.3-39.34-38.89-72.17-36.93a113.46,113.46,0,0,0-29.36,5.8q-3.72,1.23-7.44,2.76a138.54,138.54,0,0,0-15.06,7.31,168.47,168.47,0,0,0-17,11,178.36,178.36,0,0,0-15.33,12.56,160.91,160.91,0,0,0-12.54,12.83,128.91,128.91,0,0,0-11.38,15,90.53,90.53,0,0,0-7.77,14.81C255.67,238.92,254.59,250.24,258.62,260.07Z"/><path class="cls-7" d="M225.34,252.61a5.21,5.21,0,0,1,4-5.09l27.2-6.45c26.09,20,82.11,19.54,120.28,3.88s62.42-48.13,61.49-78.46a52,52,0,0,1,10.09,15.71c14.17,34.54-11.64,77.84-57.65,96.72-39,16-96.66,16.14-121.95-5.24l-21.31,13.41a5.18,5.18,0,0,1-7.06-1.43c-2.25-3.34-2.48-8.3-2.48-8.3,1.68-8.21-5.7-13-5.7-13C226.49,262.26,225.37,256.59,225.34,252.61Z"/><path class="cls-7" d="M346.89,151.07l62.93,26.3A8.33,8.33,0,1,0,416.24,162l-40-16.72A113.46,113.46,0,0,0,346.89,151.07Z"/><path class="cls-7" d="M307.38,172.09l.12.06L371,198.7a8.33,8.33,0,1,0,6.42-15.38l-53-22.18A168.47,168.47,0,0,0,307.38,172.09Z"/><path class="cls-7" d="M279.51,197.48l59.06,24.7A8.34,8.34,0,0,0,345,206.79l-53-22.14A160.91,160.91,0,0,0,279.51,197.48Z"/><path class="cls-7" d="M260.36,227.32l48.38,20.23a8.33,8.33,0,0,0,6.43-15.37l-47-19.67A90.53,90.53,0,0,0,260.36,227.32Z"/><path class="cls-4" d="M329.11,203.88H217.21v30.25h111.9a16.32,16.32,0,1,0,29.41-9.74,9,9,0,0,1,0-10.76,16.32,16.32,0,1,0-29.41-9.75Z"/><path class="cls-5" d="M347.29,235.78A16.34,16.34,0,0,0,360,226.84a16.32,16.32,0,1,1-30.91,7.29H217.21V219.56h111.9A16.33,16.33,0,0,0,347.29,235.78Z"/><path class="cls-6" d="M266.17,219c0,37.33-65.38,67.6-115.11,67.6S61,256.34,61,219c0-27.35,21.63-50.91,52.75-61.56a113.62,113.62,0,0,1,29.36-5.78c2.61-.18,5.26-.27,7.93-.27a139.21,139.21,0,0,1,16.71,1,167.21,167.21,0,0,1,19.9,3.67,178.75,178.75,0,0,1,19,5.8A160.48,160.48,0,0,1,223.09,169a128.24,128.24,0,0,1,16.23,9.59,90,90,0,0,1,12.81,10.75C260.87,198.32,266.17,208.38,266.17,219Z"/><path class="cls-7" d="M294.13,199.48a5.22,5.22,0,0,0-5.65-3.19l-27.61,4.36c-16.54,28.42-68.55,49.25-109.8,49.25s-76-20.83-86.68-49.25A52.08,52.08,0,0,0,61,219c0,37.33,40.31,67.6,90,67.6,42.15,0,95.56-21.76,110.84-51.13l24.8,4.32a5.19,5.19,0,0,0,6-4c.81-3.94-.86-8.62-.86-8.62-4.67-7,.33-14.22.33-14.22C296.73,208.84,295.62,203.17,294.13,199.48Z"/><path class="cls-7" d="M143.13,151.67,94.9,199.89A8.33,8.33,0,1,1,83.12,188.1l30.65-30.65A113.62,113.62,0,0,1,143.13,151.67Z"/><path class="cls-7" d="M187.67,156.12l-.09.1L138.9,204.89a8.33,8.33,0,1,1-11.78-11.79l40.65-40.65A167.21,167.21,0,0,1,187.67,156.12Z"/><path class="cls-7" d="M223.09,169,177.82,214.3A8.34,8.34,0,0,1,166,202.51l40.59-40.59A160.48,160.48,0,0,1,223.09,169Z"/><path class="cls-7" d="M252.13,189.37l-37.08,37.08a8.33,8.33,0,0,1-11.78-11.78l36-36A90,90,0,0,1,252.13,189.37Z"/><path class="cls-8" d="M505.61,313.05C479.69,427,377.77,512,256,512S32.31,427,6.39,313.05Z"/><ellipse class="cls-9" cx="386.78" cy="219.49" rx="11.9" ry="6.78" transform="translate(-25.39 386.48) rotate(-51.63)"/><ellipse class="cls-9" cx="373.18" cy="219.49" rx="6.78" ry="11.9" transform="translate(-38.37 85.09) rotate(-12.38)"/><ellipse class="cls-9" cx="361.09" cy="223.54" rx="6.78" ry="11.9" transform="translate(-7.01 435.36) rotate(-61.68)"/><circle class="cls-10" cx="380.78" cy="249.8" r="26.4"/><path class="cls-11" d="M389.74,274.65a26.41,26.41,0,1,1,0-49.7,26.41,26.41,0,0,0,0,49.7Z"/><circle class="cls-12" cx="389.74" cy="244.14" r="8.96"/><ellipse class="cls-9" cx="60.27" cy="219.49" rx="11.9" ry="6.78" transform="translate(-149.22 130.5) rotate(-51.63)"/><ellipse class="cls-9" cx="46.67" cy="219.49" rx="6.78" ry="11.9" transform="translate(-45.96 15.11) rotate(-12.38)"/><ellipse class="cls-9" cx="34.59" cy="223.54" rx="6.78" ry="11.9" transform="translate(-178.61 147.94) rotate(-61.68)"/><circle class="cls-10" cx="54.28" cy="249.8" r="26.4"/><path class="cls-11" d="M63.23,274.65a26.41,26.41,0,1,1,0-49.7,26.42,26.42,0,0,0,0,49.7Z"/><circle class="cls-12" cx="63.23" cy="244.14" r="8.96"/><rect class="cls-13" x="20.66" y="271.66" width="472" height="41" rx="19"/><path class="cls-14" d="M492.66,290.66v3a19,19,0,0,1-19,19h-434a19,19,0,0,1-19-19v-3a18.84,18.84,0,0,1,2.14-8.75,19,19,0,0,0,16.86,10.25h434a19,19,0,0,0,16.86-10.25A18.84,18.84,0,0,1,492.66,290.66Z"/><rect class="cls-15" x="72.35" y="211.33" width="16.67" height="91.67" rx="8.33" transform="translate(-181 321.73) rotate(-86.44)"/><rect class="cls-16" x="105.09" y="204.62" width="16.67" height="91.67" rx="8.33" transform="translate(-161.48 255.07) rotate(-66.6)"/><rect class="cls-15" x="155.27" y="220.28" width="16.67" height="91.67" rx="8.33" transform="translate(-99.79 434.06) rotate(-90.94)"/><rect class="cls-17" x="84.35" y="221.99" width="16.67" height="91.67" rx="8.33" transform="translate(-170.28 373.52) rotate(-92.81)"/><rect class="cls-17" x="234.11" y="214.79" width="16.67" height="91.67" rx="8.33" transform="translate(63.39 568.27) rotate(-106.87)"/><path class="cls-2" d="M455,192a48.26,48.26,0,1,1-61,74.76Z"/><path class="cls-3" d="M447.78,200.75a36.92,36.92,0,0,1-46.7,57.2Z"/><path class="cls-18" d="M382.65,305.08v8.54A45,45,0,0,1,365.52,349a11.08,11.08,0,0,1-6.91,2.39H316.52a11.08,11.08,0,0,1-6.9-2.39,45,45,0,0,1-17.14-35.36v-8.54Z"/><path class="cls-19" d="M373.08,307.41v6.93A36.48,36.48,0,0,1,359.2,343a9,9,0,0,1-5.61,1.93H319.47a9,9,0,0,1-5.6-1.93A36.49,36.49,0,0,1,300,314.34v-6.93Z"/><rect class="cls-20" x="285.4" y="295.03" width="104.33" height="12.38" rx="6.19"/><path class="cls-19" d="M359.5,281.45h-3.95a7.22,7.22,0,0,0,2.52-5.48v-7.45a2.41,2.41,0,0,0-2.41-2.41h-28A12.65,12.65,0,0,0,315,278.76v2.69h-1.43A13.59,13.59,0,0,0,300,295h73.1A13.58,13.58,0,0,0,359.5,281.45Z"/><path class="cls-21" d="M344.64,266.12A12.64,12.64,0,0,0,332,278.76v2.69h-1.44A13.58,13.58,0,0,0,317,295H300a13.58,13.58,0,0,1,13.58-13.58H315v-2.69a12.64,12.64,0,0,1,12.64-12.64Z"/><path class="cls-21" d="M336.47,344.94h-17a9,9,0,0,1-5.6-1.93A36.47,36.47,0,0,1,300,314.34v-6.92h17v6.92A36.47,36.47,0,0,0,330.87,343,9,9,0,0,0,336.47,344.94Z"/><circle class="cls-22" cx="346.58" cy="277.95" r="3.75"/><circle class="cls-23" cx="361.33" cy="289.2" r="3.75"/><circle class="cls-23" cx="329.08" cy="316.95" r="3.75"/><circle class="cls-23" cx="350.33" cy="326.18" r="5.48"/></g></svg>