<svg xmlns="http://www.w3.org/2000/svg" viewBox="0 0 512 512"><defs><style>.cls-1{fill:#f7bb38;}.cls-2{fill:#fff;}.cls-3{fill:#f6d372;}.cls-4{fill:#e88032;}.cls-5{fill:#32314b;}.cls-6{fill:#cc6a29;}.cls-7{fill:#27273d;}.cls-8{fill:#f9eac7;}.cls-9{fill:#e8d5af;}</style></defs><title>English Food</title><g id="BULINE"><circle class="cls-1" cx="256" cy="256" r="256"/></g><g id="Icons"><circle class="cls-2" cx="256" cy="254.44" r="225.19"/><path class="cls-3" d="M256,93.72A160.73,160.73,0,1,0,416.72,254.44,160.72,160.72,0,0,0,256,93.72Zm0,300.89A140.17,140.17,0,1,1,396.16,254.44,140.17,140.17,0,0,1,256,394.61Z"/><ellipse class="cls-4" cx="175.91" cy="175.82" rx="102.57" ry="95.08" transform="translate(-58.13 91.67) rotate(-25.21)"/><ellipse class="cls-5" cx="175.91" cy="175.82" rx="25" ry="59.33" transform="translate(-58.13 91.67) rotate(-25.21)"/><ellipse class="cls-5" cx="228.25" cy="151.18" rx="13.86" ry="42.16" transform="translate(-42.65 111.61) rotate(-25.21)"/><path class="cls-6" d="M236.6,249.56a110.81,110.81,0,0,1-20.2,12.29C165.15,286,105.47,267,83.1,219.51S84.15,113.92,135.41,89.8a111,111,0,0,1,22.34-7.75c-27.06,20.75-42,52.46-40.47,84a88.92,88.92,0,0,0,28.81,61.19C169.38,248.55,203.37,257.2,236.6,249.56Z"/><ellipse class="cls-5" cx="124.21" cy="200.16" rx="13.86" ry="42.16" transform="translate(-73.42 71.96) rotate(-25.21)"/><path class="cls-7" d="M125.64,199.48a88.71,88.71,0,0,0,20.45,27.75c.14,5.73-1.13,9.76-3.94,11.08-6.92,3.26-20.56-11.18-30.48-32.25s-12.35-40.78-5.43-44c2.81-1.32,6.72.26,11,4A88.72,88.72,0,0,0,125.64,199.48Z"/><rect class="cls-2" x="168.99" y="95.48" width="17.08" height="17.08" rx="3.21" transform="translate(-27.4 85.52) rotate(-25.21)"/><rect class="cls-2" x="110.2" y="132.6" width="17.08" height="17.08" rx="3.21" transform="translate(95.91 -41.88) rotate(32.96)"/><rect class="cls-2" x="220.66" y="188.79" width="17.08" height="17.08" rx="3.21" transform="matrix(0.16, 0.99, -0.99, 0.16, 387.69, -60.26)"/><rect class="cls-2" x="244.92" y="130.77" width="17.08" height="17.08" rx="3.21" transform="translate(36.61 -52.06) rotate(12.63)"/><rect class="cls-2" x="138.74" y="208.09" width="17.08" height="17.08" rx="3.21" transform="translate(50.94 -26.97) rotate(12.63)"/><rect class="cls-2" x="91.75" y="183.42" width="17.08" height="17.08" rx="3.21" transform="translate(44.41 -17.29) rotate(12.63)"/><rect class="cls-2" x="167.45" y="147.78" width="17.08" height="17.08" rx="3.21" transform="translate(38.45 -34.71) rotate(12.63)"/><rect class="cls-2" x="187.52" y="235.19" width="17.08" height="17.08" rx="3.21" transform="translate(58.05 -36.98) rotate(12.63)"/><ellipse class="cls-4" cx="316.53" cy="335.27" rx="102.57" ry="95.08" transform="translate(-7.93 7.67) rotate(-1.37)"/><ellipse class="cls-5" cx="316.53" cy="335.27" rx="25" ry="59.33" transform="translate(-7.93 7.67) rotate(-1.37)"/><ellipse class="cls-5" cx="374.37" cy="333.89" rx="13.86" ry="42.16" transform="translate(-7.88 9.05) rotate(-1.37)"/><path class="cls-6" d="M342.24,427.25a110.43,110.43,0,0,1-23.44,3.07c-56.63,1.36-103.56-40.1-104.82-92.6s43.64-96.15,100.27-97.5a110.12,110.12,0,0,1,23.56,1.94c-33.13,8-59.66,31-70.95,60.47a88.93,88.93,0,0,0,1.62,67.62C281.16,399.15,308.76,420.81,342.24,427.25Z"/><ellipse class="cls-5" cx="259.4" cy="336.64" rx="13.86" ry="42.16" transform="translate(-7.98 6.3) rotate(-1.37)"/><path class="cls-7" d="M261,336.6a88.83,88.83,0,0,0,7.49,33.65c-2.19,5.29-5,8.46-8.08,8.53-7.65.19-14.3-18.53-14.85-41.81s5.19-42.3,12.83-42.48c3.1-.08,6.05,2.95,8.48,8.14A88.71,88.71,0,0,0,261,336.6Z"/><rect class="cls-2" x="338.49" y="261.71" width="17.08" height="17.08" rx="3.21" transform="translate(-6.37 8.38) rotate(-1.37)"/><rect class="cls-2" x="269.71" y="271.9" width="17.08" height="17.08" rx="3.21" transform="translate(360.56 -105.95) rotate(56.8)"/><rect class="cls-2" x="348.04" y="367.94" width="17.08" height="17.08" rx="3.21" transform="translate(811.29 127.22) rotate(104.71)"/><rect class="cls-2" x="393.68" y="324.68" width="17.08" height="17.08" rx="3.21" transform="translate(276.84 -173.83) rotate(36.47)"/><rect class="cls-2" x="265.31" y="352.49" width="17.08" height="17.08" rx="3.21" transform="matrix(0.8, 0.59, -0.59, 0.8, 268.23, -92.07)"/><rect class="cls-2" x="232.3" y="310.93" width="17.08" height="17.08" rx="3.21" transform="translate(237.07 -80.59) rotate(36.47)"/><rect class="cls-2" x="315.95" y="308.93" width="17.08" height="17.08" rx="3.21" transform="translate(252.26 -130.7) rotate(36.47)"/><rect class="cls-2" x="298.98" y="396.99" width="17.08" height="17.08" rx="3.21" transform="translate(301.28 -103.37) rotate(36.47)"/><rect class="cls-8" x="290.71" y="135.25" width="129.01" height="71.88" rx="16.69" transform="translate(234.9 -204.32) rotate(46.5)"/><path class="cls-9" d="M388.58,228.45l-2.93,2.78a16.7,16.7,0,0,1-23.6-.62l-65.82-69.37a16.68,16.68,0,0,1,.62-23.59l27.93-26.51a16.69,16.69,0,0,1,22.07-.79l-25,23.72a16.68,16.68,0,0,0-.62,23.59L387.05,227A16.93,16.93,0,0,0,388.58,228.45Z"/><rect class="cls-8" x="73.19" y="307.94" width="129.01" height="71.88" rx="16.69" transform="translate(292.38 7.3) rotate(46.5)"/><path class="cls-9" d="M171.07,401.15l-2.93,2.78a16.7,16.7,0,0,1-23.6-.62L78.72,333.94a16.68,16.68,0,0,1,.62-23.59l27.93-26.51a16.69,16.69,0,0,1,22.07-.79l-25,23.72a16.68,16.68,0,0,0-.62,23.59l65.82,69.37A16.93,16.93,0,0,0,171.07,401.15Z"/></g></svg>