<svg xmlns="http://www.w3.org/2000/svg" viewBox="0 0 512 512"><defs><style>.cls-1{fill:#c27135;}.cls-2{fill:#313d74;}.cls-3{fill:#f0c788;}.cls-4{fill:#96663e;}.cls-5{fill:#76c27d;}.cls-6{fill:#8ed685;}.cls-7{fill:#efcc34;}.cls-8{fill:#d7b931;}.cls-9{fill:#db9c2a;}.cls-10{fill:#c68b28;}.cls-11{fill:#cfcfcf;}.cls-12{fill:#fff;}.cls-13{fill:#db3a46;}.cls-14{fill:#a52f3c;}</style></defs><title>Food</title><g id="BULINE"><circle class="cls-1" cx="256" cy="256" r="256"/></g><g id="Icons"><path class="cls-2" d="M419.32,453.14a256,256,0,0,1-326.64,0H419.32Z"/><path class="cls-3" d="M402.59,46.1,194.07,41.88h-.36L186,41.72l-20.06-.41-6.42-.13-20.06-.41L118,40.34l-2.31-.05a6.9,6.9,0,0,1-7-6.64,6.9,6.9,0,0,1,7-6.64l23.75-.48,3.08-.06,17-.35,6.44-.13,20-.41,7.63-.15h.49l166-3.36A255.6,255.6,0,0,1,402.59,46.1Z"/><path class="cls-4" d="M194.07,40.78a2.05,2.05,0,0,1-2.19,2L115.7,40.29a6.9,6.9,0,0,1-7-6.64,6.9,6.9,0,0,1,7-6.64l76.18-2.3a2.06,2.06,0,0,1,2.19,2Z"/><path class="cls-3" d="M475,123.36,305.07,94l-36-6.22L258,85.87,218,79l-26.08-4.51-.35-.06-5.59-1L165.93,70l-6.42-1.11L139.45,65.4l-24.76-4.28a6.65,6.65,0,1,1,2-13.13l22.76,3,20.06,2.63,6.42.84L186,57.08l7.93,1.05.49.06L292.07,71l20.15,2.65L452.65,92.09A256.47,256.47,0,0,1,475,123.36Z"/><path class="cls-4" d="M192.1,73.38A2.05,2.05,0,0,1,189.64,75L114.69,61.12a6.65,6.65,0,1,1,2-13.13l75.66,9.18a2.05,2.05,0,0,1,1.87,2.27Z"/><path class="cls-5" d="M97.75,194.32h0a0,0,0,0,1,0,0v26a47,47,0,0,1-47,47h0a0,0,0,0,1,0,0v-26A47,47,0,0,1,97.75,194.32Z" transform="translate(-168.08 239) rotate(-74.1)"/><path class="cls-5" d="M119.21,161.72h0a0,0,0,0,1,0,0v26a47,47,0,0,1-47,47h0a0,0,0,0,1,0,0v-26a47,47,0,0,1,47-47Z" transform="translate(-104 105.68) rotate(-39.36)"/><path class="cls-5" d="M265.63,95l-1.22,3.54a37.06,37.06,0,0,0-25.23-25.45L219.5,67.31h0a37.08,37.08,0,0,0,25.14,46l19.68,5.77h0c.31-1,.56-2.11.78-3.17a37.08,37.08,0,0,0,41-24.51L312.78,72A37.08,37.08,0,0,0,265.63,95Z"/><path class="cls-6" d="M451.79,197.28h0a0,0,0,0,1,0,0v26a47,47,0,0,1-47,47h0a0,0,0,0,1,0,0v-26A47,47,0,0,1,451.79,197.28Z" transform="translate(125.92 -149.18) rotate(23.08)"/><path class="cls-5" d="M376.37,118.59h0a0,0,0,0,1,0,0v26a47,47,0,0,1-47,47h0a0,0,0,0,1,0,0v-26a47,47,0,0,1,47-47Z" transform="translate(77.32 -114.43) rotate(20.64)"/><rect class="cls-7" x="139.45" y="16.49" width="20.06" height="236.28" rx="10.03"/><rect class="cls-7" x="165.93" y="16.49" width="20.06" height="236.28" rx="10.03"/><path class="cls-7" d="M342.82,187.64a86.36,86.36,0,1,0-172.71,0Z"/><path class="cls-7" d="M170.11,187.64a86.36,86.36,0,0,0,172.71,0Z"/><circle class="cls-8" cx="256.47" cy="187.64" r="65.13" transform="translate(-57.56 236.31) rotate(-45)"/><circle class="cls-9" cx="256.47" cy="187.64" r="43.03" transform="translate(-37.98 307.16) rotate(-58.28)"/><path class="cls-10" d="M282.16,187.64a25.69,25.69,0,1,0-25.69,25.69,25.69,25.69,0,0,0,25.69-25.69Z"/><path class="cls-7" d="M255.58,255.3a86.36,86.36,0,1,0-172.71,0Z"/><path class="cls-8" d="M234.36,255.3a65.14,65.14,0,1,0-130.27,0Z"/><path class="cls-9" d="M212.26,255.3a43,43,0,1,0-86.07,0Z"/><path class="cls-10" d="M194.91,255.3a25.69,25.69,0,1,0-51.37,0Z"/><path class="cls-7" d="M428.29,255.3a86.36,86.36,0,1,0-172.71,0Z"/><path class="cls-8" d="M407.07,255.3a65.14,65.14,0,1,0-130.27,0Z"/><path class="cls-9" d="M385,255.3a43,43,0,1,0-86.07,0Z"/><path class="cls-10" d="M367.63,255.3a25.69,25.69,0,0,0-51.38,0Z"/><path class="cls-11" d="M183.33,434.44H327.84a0,0,0,0,1,0,0v43a12,12,0,0,1-12,12H195.37a12,12,0,0,1-12-12v-43A0,0,0,0,1,183.33,434.44Z"/><path class="cls-12" d="M437.21,263.74V296A164.92,164.92,0,0,1,272.29,461H238.88A164.93,164.93,0,0,1,74,296V263.74a8.29,8.29,0,0,1,8.29-8.28H428.93A8.28,8.28,0,0,1,437.21,263.74Z"/><path class="cls-13" d="M437.21,288.6V296A164.91,164.91,0,0,1,272.29,461H238.88A164.91,164.91,0,0,1,74,296V288.6Z"/><path class="cls-11" d="M196.36,263.74a8.29,8.29,0,0,1,8.29-8.28H82.53a8.28,8.28,0,0,0-8.28,8.28V288.6H196.36Z"/><path class="cls-14" d="M196.36,296V288.6H74.25V296A164.93,164.93,0,0,0,239.18,461h33.41a165.11,165.11,0,0,0,44.35-6A165,165,0,0,1,196.36,296Z"/></g></svg>